<svg width="14" height="15" viewBox="0 0 14 15" fill="none" xmlns="http://www.w3.org/2000/svg">
<path fill-rule="evenodd" clip-rule="evenodd" d="M9.52892 0.666666C9.80492 0.666666 10.0289 0.890666 10.0289 1.16667L10.0292 1.73187C11.0026 1.79861 11.8111 2.13203 12.3833 2.7054C13.0079 3.33273 13.3366 4.23473 13.3333 5.31673V11.3987C13.3333 13.6201 11.9226 15.0001 9.65259 15.0001H4.01392C1.74392 15.0001 0.333252 13.6007 0.333252 11.3481V5.3154C0.333252 3.22019 1.59129 1.87529 3.64304 1.7321L3.64345 1.16667C3.64345 0.890666 3.86745 0.666666 4.14345 0.666666C4.41945 0.666666 4.64345 0.890666 4.64345 1.16667L4.64325 1.71933H9.02859L9.02892 1.16667C9.02892 0.890666 9.25292 0.666666 9.52892 0.666666ZM12.3333 6.60267H1.33325V11.3481C1.33325 13.0587 2.28525 14.0001 4.01392 14.0001H9.65259C11.3813 14.0001 12.3333 13.0761 12.3333 11.3987L12.3333 6.60267ZM9.80072 10.7975C10.0767 10.7975 10.3007 11.0215 10.3007 11.2975C10.3007 11.5735 10.0767 11.7975 9.80072 11.7975C9.52472 11.7975 9.29805 11.5735 9.29805 11.2975C9.29805 11.0215 9.51872 10.7975 9.79472 10.7975H9.80072ZM6.84239 10.7975C7.11839 10.7975 7.34239 11.0215 7.34239 11.2975C7.34239 11.5735 7.11839 11.7975 6.84239 11.7975C6.56639 11.7975 6.33972 11.5735 6.33972 11.2975C6.33972 11.0215 6.56039 10.7975 6.83639 10.7975H6.84239ZM3.87785 10.7975C4.15385 10.7975 4.37785 11.0215 4.37785 11.2975C4.37785 11.5735 4.15385 11.7975 3.87785 11.7975C3.60185 11.7975 3.37452 11.5735 3.37452 11.2975C3.37452 11.0215 3.59585 10.7975 3.87185 10.7975H3.87785ZM9.80072 8.2064C10.0767 8.2064 10.3007 8.4304 10.3007 8.7064C10.3007 8.9824 10.0767 9.2064 9.80072 9.2064C9.52472 9.2064 9.29805 8.9824 9.29805 8.7064C9.29805 8.4304 9.51872 8.2064 9.79472 8.2064H9.80072ZM6.84239 8.2064C7.11839 8.2064 7.34239 8.4304 7.34239 8.7064C7.34239 8.9824 7.11839 9.2064 6.84239 9.2064C6.56639 9.2064 6.33972 8.9824 6.33972 8.7064C6.33972 8.4304 6.56039 8.2064 6.83639 8.2064H6.84239ZM3.87785 8.2064C4.15385 8.2064 4.37785 8.4304 4.37785 8.7064C4.37785 8.9824 4.15385 9.2064 3.87785 9.2064C3.60185 9.2064 3.37452 8.9824 3.37452 8.7064C3.37452 8.4304 3.59585 8.2064 3.87185 8.2064H3.87785ZM9.02859 2.71933H4.64325L4.64345 3.36067C4.64345 3.63667 4.41945 3.86067 4.14345 3.86067C3.86745 3.86067 3.64345 3.63667 3.64345 3.36067L3.6431 2.73447C2.14961 2.85993 1.33325 3.76524 1.33325 5.3154V5.60267H12.3333L12.3333 5.3154C12.3359 4.49207 12.1146 3.85207 11.6753 3.41207C11.2896 3.02527 10.7258 2.79427 10.0295 2.73479L10.0289 3.36067C10.0289 3.63667 9.80492 3.86067 9.52892 3.86067C9.25292 3.86067 9.02892 3.63667 9.02892 3.36067L9.02859 2.71933Z" fill="#1C1C1C"/>
</svg>
