<svg width="14" height="14" viewBox="0 0 14 14" fill="none" xmlns="http://www.w3.org/2000/svg">
<path fill-rule="evenodd" clip-rule="evenodd" d="M9.88925 0.333334C12.1486 0.333334 13.6666 1.91867 13.6666 4.27733V9.72267C13.6666 12.0813 12.1486 13.6667 9.88859 13.6667H4.10992C1.85059 13.6667 0.333252 12.0813 0.333252 9.72267V4.27733C0.333252 1.91867 1.85059 0.333334 4.10992 0.333334H9.88925ZM9.88925 1.33333H4.10992C2.42325 1.33333 1.33325 2.48867 1.33325 4.27733V9.72267C1.33325 11.5113 2.42325 12.6667 4.10992 12.6667H9.88859C11.5759 12.6667 12.6666 11.5113 12.6666 9.72267V4.27733C12.6666 2.48867 11.5766 1.33333 9.88925 1.33333ZM6.99932 3.58907C7.27532 3.58907 7.49932 3.81307 7.49932 4.08907V6.71307L9.51665 7.91507C9.75332 8.05707 9.83132 8.36373 9.68998 8.60107C9.59598 8.75773 9.42998 8.84507 9.25998 8.84507C9.17265 8.84507 9.08465 8.8224 9.00398 8.77507L6.74332 7.4264C6.59265 7.33573 6.49932 7.1724 6.49932 6.99707V4.08907C6.49932 3.81307 6.72332 3.58907 6.99932 3.58907Z" fill="#1C1C1C"/>
</svg>
